<svg width="30" height="30" viewBox="0 0 30 30" fill="none" xmlns="http://www.w3.org/2000/svg">
<g clip-path="url(#clip0_63_471)">
<path d="M15.2462 28.5333C22.7205 28.5333 28.7796 22.4743 28.7796 15C28.7796 7.52575 22.7205 1.46667 15.2462 1.46667C7.77197 1.46667 1.71289 7.52575 1.71289 15C1.71289 22.4743 7.77197 28.5333 15.2462 28.5333Z" stroke="#303030" stroke-width="0.966667"/>
<path d="M10.3605 10.5533V19.35H9.11639V11.6466H7.13086V10.5533H10.3605ZM18.4679 18.2567V19.35H12.1459V18.4954L15.7284 15.0396C16.1634 14.621 16.4573 14.2605 16.6081 13.9589C16.7538 13.6703 16.8312 13.3521 16.8343 13.0289C16.8343 12.5678 16.6699 12.2121 16.3442 11.9608C16.0252 11.7007 15.565 11.5712 14.9618 11.5712C13.9903 11.5712 13.2402 11.8902 12.7124 12.5263L11.8579 11.7848C12.2188 11.3531 12.6802 11.0165 13.2015 10.8046C13.7641 10.5697 14.3876 10.4528 15.0749 10.4528C15.9962 10.4528 16.7299 10.6751 17.2741 11.1188C17.8183 11.5538 18.0909 12.1493 18.0909 12.9033C18.0909 13.3721 17.9904 13.8168 17.7893 14.2353C17.5883 14.6539 17.2074 15.1314 16.6458 15.6679L13.9565 18.2567H18.4679ZM25.2829 15.4543H22.9968V17.7037H21.9412V15.4543H19.654V14.4615H21.9412V12.1995H22.9968V14.4615H25.2839L25.2829 15.4543Z" fill="#303030"/>
</g>
<defs>
<clipPath id="clip0_63_471">
<rect width="29" height="29" fill="white" transform="translate(0.560547 0.5)"/>
</clipPath>
</defs>
</svg>
