<svg width="1312" height="358" viewBox="0 0 1312 358" fill="none" xmlns="http://www.w3.org/2000/svg">
<g clip-path="url(#clip0_91_714)">
<rect width="1312" height="358" fill="#0052B7"/>
<g clip-path="url(#clip1_91_714)">
<g clip-path="url(#clip2_91_714)">
<path d="M1155.29 471.089C1218.25 471.089 1269.29 420.048 1269.29 357.087C1269.29 294.125 1218.25 243.085 1155.29 243.085C1092.32 243.085 1041.28 294.125 1041.28 357.087C1041.28 420.048 1092.32 471.089 1155.29 471.089Z" fill="#00AFBE"/>
</g>
</g>
<g clip-path="url(#clip3_91_714)">
<g clip-path="url(#clip4_91_714)">
<path d="M1.18343 42.0251C39.562 42.0251 70.6735 73.3606 70.6735 112.015C70.6735 150.67 39.562 182.005 1.18343 182.005C-37.1941 182.005 -68.3066 150.67 -68.3066 112.015C-68.3066 73.3606 -37.1941 42.0251 1.18343 42.0251ZM1.18343 147.156C20.4527 147.156 36.0734 131.423 36.0734 112.015C36.0734 92.6079 20.4527 76.8741 1.18343 76.8741C-18.0848 76.8741 -33.7066 92.6079 -33.7066 112.015C-33.7066 131.422 -18.0858 147.156 1.18343 147.156Z" fill="#00AFBE"/>
</g>
</g>
<g clip-path="url(#clip5_91_714)">
<g clip-path="url(#clip6_91_714)">
<path d="M1191.25 296.6C1191.25 295.229 1190.14 294.118 1188.77 294.118C1187.39 294.118 1186.28 295.229 1186.28 296.6C1186.28 297.97 1187.39 299.081 1188.77 299.081C1190.14 299.081 1191.25 297.97 1191.25 296.6Z" fill="white"/>
<path d="M1191.25 269.795C1191.25 268.424 1190.14 267.313 1188.77 267.313C1187.39 267.313 1186.28 268.424 1186.28 269.795C1186.28 271.166 1187.39 272.277 1188.77 272.277C1190.14 272.277 1191.25 271.166 1191.25 269.795Z" fill="white"/>
<path d="M1191.25 242.99C1191.25 241.619 1190.14 240.508 1188.77 240.508C1187.39 240.508 1186.28 241.619 1186.28 242.99C1186.28 244.361 1187.39 245.472 1188.77 245.472C1190.14 245.472 1191.25 244.361 1191.25 242.99Z" fill="white"/>
<path d="M1191.25 216.186C1191.25 214.815 1190.14 213.704 1188.77 213.704C1187.39 213.704 1186.28 214.815 1186.28 216.186C1186.28 217.556 1187.39 218.667 1188.77 218.667C1190.14 218.667 1191.25 217.556 1191.25 216.186Z" fill="white"/>
<path d="M1191.25 189.381C1191.25 188.01 1190.14 186.899 1188.77 186.899C1187.39 186.899 1186.28 188.01 1186.28 189.381C1186.28 190.752 1187.39 191.863 1188.77 191.863C1190.14 191.863 1191.25 190.752 1191.25 189.381Z" fill="white"/>
<path d="M1191.25 162.576C1191.25 161.205 1190.14 160.094 1188.77 160.094C1187.39 160.094 1186.28 161.205 1186.28 162.576C1186.28 163.947 1187.39 165.058 1188.77 165.058C1190.14 165.058 1191.25 163.947 1191.25 162.576Z" fill="white"/>
<path d="M1218.05 296.6C1218.05 295.229 1216.94 294.118 1215.57 294.118C1214.2 294.118 1213.09 295.229 1213.09 296.6C1213.09 297.97 1214.2 299.081 1215.57 299.081C1216.94 299.081 1218.05 297.97 1218.05 296.6Z" fill="white"/>
<path d="M1218.05 269.795C1218.05 268.424 1216.94 267.313 1215.57 267.313C1214.2 267.313 1213.09 268.424 1213.09 269.795C1213.09 271.166 1214.2 272.277 1215.57 272.277C1216.94 272.277 1218.05 271.166 1218.05 269.795Z" fill="white"/>
<path d="M1218.05 242.99C1218.05 241.619 1216.94 240.508 1215.57 240.508C1214.2 240.508 1213.09 241.619 1213.09 242.99C1213.09 244.361 1214.2 245.472 1215.57 245.472C1216.94 245.472 1218.05 244.361 1218.05 242.99Z" fill="white"/>
<path d="M1218.05 216.185C1218.05 214.815 1216.94 213.704 1215.57 213.704C1214.2 213.704 1213.09 214.815 1213.09 216.185C1213.09 217.556 1214.2 218.667 1215.57 218.667C1216.94 218.667 1218.05 217.556 1218.05 216.185Z" fill="white"/>
<path d="M1218.05 189.381C1218.05 188.01 1216.94 186.899 1215.57 186.899C1214.2 186.899 1213.09 188.01 1213.09 189.381C1213.09 190.752 1214.2 191.863 1215.57 191.863C1216.94 191.863 1218.05 190.752 1218.05 189.381Z" fill="white"/>
<path d="M1218.05 162.576C1218.05 161.205 1216.94 160.094 1215.57 160.094C1214.2 160.094 1213.09 161.205 1213.09 162.576C1213.09 163.947 1214.2 165.058 1215.57 165.058C1216.94 165.058 1218.05 163.947 1218.05 162.576Z" fill="white"/>
<path d="M1244.86 296.6C1244.86 295.229 1243.75 294.118 1242.37 294.118C1241 294.118 1239.89 295.229 1239.89 296.6C1239.89 297.97 1241 299.081 1242.37 299.081C1243.75 299.081 1244.86 297.97 1244.86 296.6Z" fill="white"/>
<path d="M1244.86 269.795C1244.86 268.424 1243.75 267.313 1242.37 267.313C1241 267.313 1239.89 268.424 1239.89 269.795C1239.89 271.166 1241 272.277 1242.37 272.277C1243.75 272.277 1244.86 271.166 1244.86 269.795Z" fill="white"/>
<path d="M1244.86 242.99C1244.86 241.619 1243.75 240.508 1242.37 240.508C1241 240.508 1239.89 241.619 1239.89 242.99C1239.89 244.361 1241 245.472 1242.37 245.472C1243.75 245.472 1244.86 244.361 1244.86 242.99Z" fill="white"/>
<path d="M1244.86 216.185C1244.86 214.815 1243.75 213.704 1242.37 213.704C1241 213.704 1239.89 214.815 1239.89 216.185C1239.89 217.556 1241 218.667 1242.37 218.667C1243.75 218.667 1244.86 217.556 1244.86 216.185Z" fill="white"/>
<path d="M1244.86 189.381C1244.86 188.01 1243.75 186.899 1242.37 186.899C1241 186.899 1239.89 188.01 1239.89 189.381C1239.89 190.752 1241 191.863 1242.37 191.863C1243.75 191.863 1244.86 190.752 1244.86 189.381Z" fill="white"/>
<path d="M1244.86 162.576C1244.86 161.205 1243.75 160.094 1242.37 160.094C1241 160.094 1239.89 161.205 1239.89 162.576C1239.89 163.947 1241 165.058 1242.37 165.058C1243.75 165.058 1244.86 163.947 1244.86 162.576Z" fill="white"/>
<path d="M1271.66 296.6C1271.66 295.229 1270.55 294.118 1269.18 294.118C1267.81 294.118 1266.7 295.229 1266.7 296.6C1266.7 297.97 1267.81 299.081 1269.18 299.081C1270.55 299.081 1271.66 297.97 1271.66 296.6Z" fill="white"/>
<path d="M1271.66 269.795C1271.66 268.424 1270.55 267.313 1269.18 267.313C1267.81 267.313 1266.7 268.424 1266.7 269.795C1266.7 271.166 1267.81 272.277 1269.18 272.277C1270.55 272.277 1271.66 271.166 1271.66 269.795Z" fill="white"/>
<path d="M1271.66 242.99C1271.66 241.619 1270.55 240.508 1269.18 240.508C1267.81 240.508 1266.7 241.619 1266.7 242.99C1266.7 244.361 1267.81 245.472 1269.18 245.472C1270.55 245.472 1271.66 244.361 1271.66 242.99Z" fill="white"/>
<path d="M1271.66 216.185C1271.66 214.815 1270.55 213.704 1269.18 213.704C1267.81 213.704 1266.7 214.815 1266.7 216.185C1266.7 217.556 1267.81 218.667 1269.18 218.667C1270.55 218.667 1271.66 217.556 1271.66 216.185Z" fill="white"/>
<path d="M1271.66 189.381C1271.66 188.01 1270.55 186.899 1269.18 186.899C1267.81 186.899 1266.7 188.01 1266.7 189.381C1266.7 190.752 1267.81 191.863 1269.18 191.863C1270.55 191.863 1271.66 190.752 1271.66 189.381Z" fill="white"/>
<path d="M1271.66 162.576C1271.66 161.205 1270.55 160.094 1269.18 160.094C1267.81 160.094 1266.7 161.205 1266.7 162.576C1266.7 163.947 1267.81 165.058 1269.18 165.058C1270.55 165.058 1271.66 163.947 1271.66 162.576Z" fill="white"/>
<path d="M1298.47 296.6C1298.47 295.229 1297.35 294.118 1295.98 294.118C1294.61 294.118 1293.5 295.229 1293.5 296.6C1293.5 297.97 1294.61 299.082 1295.98 299.082C1297.35 299.082 1298.47 297.97 1298.47 296.6Z" fill="white"/>
<path d="M1298.47 269.795C1298.47 268.424 1297.35 267.313 1295.98 267.313C1294.61 267.313 1293.5 268.424 1293.5 269.795C1293.5 271.166 1294.61 272.277 1295.98 272.277C1297.35 272.277 1298.47 271.166 1298.47 269.795Z" fill="white"/>
<path d="M1298.47 242.99C1298.47 241.62 1297.35 240.508 1295.98 240.508C1294.61 240.508 1293.5 241.62 1293.5 242.99C1293.5 244.361 1294.61 245.472 1295.98 245.472C1297.35 245.472 1298.47 244.361 1298.47 242.99Z" fill="white"/>
<path d="M1298.47 216.186C1298.47 214.815 1297.35 213.704 1295.98 213.704C1294.61 213.704 1293.5 214.815 1293.5 216.186C1293.5 217.556 1294.61 218.668 1295.98 218.668C1297.35 218.668 1298.47 217.556 1298.47 216.186Z" fill="white"/>
<path d="M1298.47 189.381C1298.47 188.01 1297.35 186.899 1295.98 186.899C1294.61 186.899 1293.5 188.01 1293.5 189.381C1293.5 190.752 1294.61 191.863 1295.98 191.863C1297.35 191.863 1298.47 190.752 1298.47 189.381Z" fill="white"/>
<path d="M1298.47 162.576C1298.47 161.206 1297.35 160.094 1295.98 160.094C1294.61 160.094 1293.5 161.206 1293.5 162.576C1293.5 163.947 1294.61 165.058 1295.98 165.058C1297.35 165.058 1298.47 163.947 1298.47 162.576Z" fill="white"/>
</g>
</g>
<g clip-path="url(#clip7_91_714)">
<g clip-path="url(#clip8_91_714)">
<path d="M32.2602 66.7666C32.2602 65.3922 31.1461 64.2781 29.7717 64.2781C28.3973 64.2781 27.2832 65.3922 27.2832 66.7666C27.2832 68.141 28.3973 69.2551 29.7717 69.2551C31.1461 69.2551 32.2602 68.141 32.2602 66.7666Z" fill="white"/>
<path d="M32.2602 39.8906C32.2602 38.5163 31.1461 37.4021 29.7717 37.4021C28.3973 37.4021 27.2832 38.5163 27.2832 39.8906C27.2832 41.265 28.3973 42.3792 29.7717 42.3792C31.1461 42.3792 32.2602 41.265 32.2602 39.8906Z" fill="white"/>
<path d="M32.2602 13.0147C32.2602 11.6404 31.1461 10.5262 29.7717 10.5262C28.3973 10.5262 27.2832 11.6404 27.2832 13.0147C27.2832 14.3891 28.3973 15.5032 29.7717 15.5032C31.1461 15.5032 32.2602 14.3891 32.2602 13.0147Z" fill="white"/>
<path d="M59.1372 66.7666C59.1372 65.3922 58.023 64.278 56.6487 64.278C55.2743 64.278 54.1602 65.3922 54.1602 66.7666C54.1602 68.1409 55.2743 69.2551 56.6487 69.2551C58.023 69.2551 59.1372 68.1409 59.1372 66.7666Z" fill="white"/>
<path d="M59.1372 39.8906C59.1372 38.5163 58.023 37.4021 56.6487 37.4021C55.2743 37.4021 54.1602 38.5163 54.1602 39.8906C54.1602 41.265 55.2743 42.3792 56.6487 42.3792C58.023 42.3792 59.1372 41.265 59.1372 39.8906Z" fill="white"/>
<path d="M59.1372 13.0147C59.1372 11.6403 58.023 10.5261 56.6487 10.5261C55.2743 10.5261 54.1602 11.6403 54.1602 13.0147C54.1602 14.389 55.2743 15.5032 56.6487 15.5032C58.023 15.5032 59.1372 14.389 59.1372 13.0147Z" fill="white"/>
<path d="M86.0122 66.7666C86.0122 65.3922 84.898 64.278 83.5237 64.278C82.1493 64.278 81.0352 65.3922 81.0352 66.7666C81.0352 68.1409 82.1493 69.2551 83.5237 69.2551C84.898 69.2551 86.0122 68.1409 86.0122 66.7666Z" fill="white"/>
<path d="M86.0122 39.8906C86.0122 38.5163 84.898 37.4021 83.5237 37.4021C82.1493 37.4021 81.0352 38.5163 81.0352 39.8906C81.0352 41.265 82.1493 42.3792 83.5237 42.3792C84.898 42.3792 86.0122 41.265 86.0122 39.8906Z" fill="white"/>
<path d="M86.0122 13.0147C86.0122 11.6403 84.898 10.5261 83.5237 10.5261C82.1493 10.5261 81.0352 11.6403 81.0352 13.0147C81.0352 14.389 82.1493 15.5032 83.5237 15.5032C84.898 15.5032 86.0122 14.389 86.0122 13.0147Z" fill="white"/>
<path d="M112.889 66.7666C112.889 65.3922 111.775 64.278 110.401 64.278C109.026 64.278 107.912 65.3922 107.912 66.7666C107.912 68.1409 109.026 69.2551 110.401 69.2551C111.775 69.2551 112.889 68.1409 112.889 66.7666Z" fill="white"/>
<path d="M112.889 39.8906C112.889 38.5163 111.775 37.4021 110.401 37.4021C109.026 37.4021 107.912 38.5163 107.912 39.8906C107.912 41.265 109.026 42.3792 110.401 42.3792C111.775 42.3792 112.889 41.265 112.889 39.8906Z" fill="white"/>
<path d="M112.889 13.0147C112.889 11.6403 111.775 10.5261 110.401 10.5261C109.026 10.5261 107.912 11.6403 107.912 13.0147C107.912 14.389 109.026 15.5032 110.401 15.5032C111.775 15.5032 112.889 14.389 112.889 13.0147Z" fill="white"/>
<path d="M139.764 66.7667C139.764 65.3924 138.65 64.2782 137.276 64.2782C135.901 64.2782 134.787 65.3924 134.787 66.7667C134.787 68.1411 135.901 69.2552 137.276 69.2552C138.65 69.2552 139.764 68.1411 139.764 66.7667Z" fill="white"/>
<path d="M139.764 39.8908C139.764 38.5165 138.65 37.4023 137.276 37.4023C135.901 37.4023 134.787 38.5165 134.787 39.8908C134.787 41.2652 135.901 42.3793 137.276 42.3793C138.65 42.3793 139.764 41.2652 139.764 39.8908Z" fill="white"/>
<path d="M139.764 13.0148C139.764 11.6405 138.65 10.5263 137.276 10.5263C135.901 10.5263 134.787 11.6405 134.787 13.0148C134.787 14.3892 135.901 15.5034 137.276 15.5034C138.65 15.5034 139.764 14.3892 139.764 13.0148Z" fill="white"/>
<path d="M166.641 66.7667C166.641 65.3924 165.527 64.2782 164.153 64.2782C162.778 64.2782 161.664 65.3924 161.664 66.7667C161.664 68.1411 162.778 69.2552 164.153 69.2552C165.527 69.2552 166.641 68.1411 166.641 66.7667Z" fill="white"/>
<path d="M166.641 39.8908C166.641 38.5165 165.527 37.4023 164.153 37.4023C162.778 37.4023 161.664 38.5165 161.664 39.8908C161.664 41.2652 162.778 42.3793 164.153 42.3793C165.527 42.3793 166.641 41.2652 166.641 39.8908Z" fill="white"/>
<path d="M166.641 13.0148C166.641 11.6405 165.527 10.5263 164.153 10.5263C162.778 10.5263 161.664 11.6405 161.664 13.0148C161.664 14.3892 162.778 15.5034 164.153 15.5034C165.527 15.5034 166.641 14.3892 166.641 13.0148Z" fill="white"/>
<path d="M193.516 66.7667C193.516 65.3924 192.402 64.2782 191.028 64.2782C189.653 64.2782 188.539 65.3924 188.539 66.7667C188.539 68.1411 189.653 69.2552 191.028 69.2552C192.402 69.2552 193.516 68.1411 193.516 66.7667Z" fill="white"/>
<path d="M193.516 39.8908C193.516 38.5165 192.402 37.4023 191.028 37.4023C189.653 37.4023 188.539 38.5165 188.539 39.8908C188.539 41.2652 189.653 42.3793 191.028 42.3793C192.402 42.3793 193.516 41.2652 193.516 39.8908Z" fill="white"/>
<path d="M193.516 13.0148C193.516 11.6405 192.402 10.5263 191.028 10.5263C189.653 10.5263 188.539 11.6405 188.539 13.0148C188.539 14.3892 189.653 15.5034 191.028 15.5034C192.402 15.5034 193.516 14.3892 193.516 13.0148Z" fill="white"/>
<path d="M220.393 66.7667C220.393 65.3924 219.279 64.2782 217.905 64.2782C216.53 64.2782 215.416 65.3924 215.416 66.7667C215.416 68.1411 216.53 69.2552 217.905 69.2552C219.279 69.2552 220.393 68.1411 220.393 66.7667Z" fill="white"/>
<path d="M220.393 39.8908C220.393 38.5165 219.279 37.4023 217.905 37.4023C216.53 37.4023 215.416 38.5165 215.416 39.8908C215.416 41.2652 216.53 42.3793 217.905 42.3793C219.279 42.3793 220.393 41.2652 220.393 39.8908Z" fill="white"/>
<path d="M220.393 13.0148C220.393 11.6405 219.279 10.5263 217.905 10.5263C216.53 10.5263 215.416 11.6405 215.416 13.0148C215.416 14.3892 216.53 15.5034 217.905 15.5034C219.279 15.5034 220.393 14.3892 220.393 13.0148Z" fill="white"/>
<path d="M247.268 66.7667C247.268 65.3924 246.154 64.2782 244.78 64.2782C243.405 64.2782 242.291 65.3924 242.291 66.7667C242.291 68.1411 243.405 69.2552 244.78 69.2552C246.154 69.2552 247.268 68.1411 247.268 66.7667Z" fill="white"/>
<path d="M247.268 39.8908C247.268 38.5165 246.154 37.4023 244.78 37.4023C243.405 37.4023 242.291 38.5165 242.291 39.8908C242.291 41.2652 243.405 42.3793 244.78 42.3793C246.154 42.3793 247.268 41.2652 247.268 39.8908Z" fill="white"/>
<path d="M247.268 13.0148C247.268 11.6405 246.154 10.5263 244.78 10.5263C243.405 10.5263 242.291 11.6405 242.291 13.0148C242.291 14.3892 243.405 15.5034 244.78 15.5034C246.154 15.5034 247.268 14.3892 247.268 13.0148Z" fill="white"/>
</g>
</g>
</g>
<defs>
<clipPath id="clip0_91_714">
<rect width="1312" height="358" fill="white"/>
</clipPath>
<clipPath id="clip1_91_714">
<rect width="229" height="229" fill="white" transform="translate(1041 243)"/>
</clipPath>
<clipPath id="clip2_91_714">
<rect width="229" height="229" fill="white" transform="translate(1041 243)"/>
</clipPath>
<clipPath id="clip3_91_714">
<rect width="139.98" height="139.98" fill="white" transform="translate(-69 42)"/>
</clipPath>
<clipPath id="clip4_91_714">
<rect width="139.98" height="140.98" fill="white" transform="translate(-69 41.5001)"/>
</clipPath>
<clipPath id="clip5_91_714">
<rect width="139.98" height="139.98" fill="white" transform="translate(1186 160.01)"/>
</clipPath>
<clipPath id="clip6_91_714">
<rect width="139.98" height="139.98" fill="white" transform="translate(1186 160.01)"/>
</clipPath>
<clipPath id="clip7_91_714">
<rect width="220.98" height="139.98" fill="white" transform="translate(27 -70)"/>
</clipPath>
<clipPath id="clip8_91_714">
<rect width="220.98" height="140.352" fill="white" transform="translate(27 -70.1861)"/>
</clipPath>
</defs>
</svg>
