<svg width="30" height="30" viewBox="0 0 30 30" fill="none" xmlns="http://www.w3.org/2000/svg">
<g clip-path="url(#clip0_63_476)">
<path d="M15.4384 28.5497C22.9218 28.5497 28.9882 22.4833 28.9882 15C28.9882 7.51663 22.9218 1.4502 15.4384 1.4502C7.95511 1.4502 1.88867 7.51663 1.88867 15C1.88867 22.4833 7.95511 28.5497 15.4384 28.5497Z" stroke="#303030" stroke-width="0.934767"/>
<path d="M14.9045 10.65C17.9949 10.65 20.5111 12.6935 21.7108 15.1508C20.4048 17.9 17.6672 19.5579 14.9054 19.5579C12.1427 19.5579 9.3181 17.9 8.03534 15.1498C9.3181 12.5833 11.728 10.65 14.9045 10.65ZM14.9045 9.68335C11.2698 9.68335 8.1668 11.9502 6.9082 15.1508C8.16584 18.3505 11.2698 20.6173 14.9045 20.6173C18.5391 20.6173 21.6431 18.3505 22.9007 15.1508C21.6441 11.9511 18.5391 9.68335 14.9045 9.68335ZM14.9045 12.8859C15.9349 12.8859 17.1539 13.6186 17.1539 15.1508C17.1539 16.2171 16.4647 17.4167 14.9045 17.4167C13.6565 17.4167 12.6927 16.45 12.6927 15.1508C12.6927 14.0333 13.4835 12.8859 14.9045 12.8859ZM14.9045 11.8709C14.0484 11.8917 13.2343 12.2464 12.6362 12.8592C12.0381 13.4721 11.7032 14.2945 11.7032 15.1508C11.7032 16.0072 12.0381 16.8296 12.6362 17.4424C13.2343 18.0552 14.0484 18.4099 14.9045 18.4307C15.7647 18.4159 16.5848 18.0638 17.1879 17.4503C17.791 16.8367 18.129 16.0107 18.129 15.1503C18.129 14.2899 17.791 13.464 17.1879 12.8504C16.5848 12.2368 15.7647 11.8857 14.9045 11.8709Z" fill="#303030"/>
</g>
<defs>
<clipPath id="clip0_63_476">
<rect width="29" height="29" fill="white" transform="translate(0.560547 0.5)"/>
</clipPath>
</defs>
</svg>
