<svg width="160" height="36" viewBox="0 0 160 36" fill="none" xmlns="http://www.w3.org/2000/svg">
<g clip-path="url(#clip0_63_457)">
<g clip-path="url(#clip1_63_457)">
<path d="M15.3598 21.7407L1.93566 1.60555H7.98486L15.3588 12.6257L22.7347 1.60456H29.9436V29.8192H24.5573V7.90319L15.3608 21.7417L15.3598 21.7407ZM6.07579 29.861H0.689453V23.5633L6.07579 15.4689V29.861ZM37.2331 29.861V1.60555H42.6194V22.5695L56.5394 1.60555H62.837V29.861H57.6167V9.23487L43.7791 29.861H37.2331ZM103.428 29.861V1.60555H108.815V22.5695L122.736 1.60555H129.032V29.861H123.812V9.40282L110.142 29.861H103.428ZM146.938 1.60555C154.629 1.48331 158.435 5.83313 159.697 8.23412L155.525 10.5C153.474 6.3658 149.258 5.75263 146.938 5.87884C143.561 6.06071 138.067 8.53126 138.067 15.8893C138.067 23.2463 144.117 25.3034 147.142 25.4118C151.993 25.4118 154.726 22.498 155.5 20.9099L159.697 23.2771C156.245 29.0719 150.479 29.8063 147.142 29.8063C137.09 29.8063 132.981 21.4237 132.981 15.8893C132.981 7.13996 139.329 1.60555 146.938 1.60555Z" fill="#FC4C00"/>
<path fill-rule="evenodd" clip-rule="evenodd" d="M72.2833 33.9206V29.7447H93.9509V33.8789H99.3779V25.3124H94.8214V1.60559H73.608C73.5672 22.5278 70.4179 25.3124 69.5484 25.3124H66.8145V33.9206H72.2833ZM89.5186 5.99714H78.6624C78.414 19.0893 76.2594 24.6496 75.3481 25.3124H89.5166V5.99714H89.5186Z" fill="#FC4C00"/>
</g>
</g>
<defs>
<clipPath id="clip0_63_457">
<rect width="160" height="36" fill="white"/>
</clipPath>
<clipPath id="clip1_63_457">
<rect width="160" height="32.795" fill="white" transform="translate(0 1.60254)"/>
</clipPath>
</defs>
</svg>
