<svg width="96" height="29" viewBox="0 0 96 29" fill="none" xmlns="http://www.w3.org/2000/svg">
<g clip-path="url(#clip0_63_248)">
<g clip-path="url(#clip1_63_248)">
<g clip-path="url(#clip2_63_248)">
<path d="M1.87368 6.71017C1.91755 5.4092 2.45246 4.17312 3.37081 3.25059C4.28916 2.32806 5.52281 1.78753 6.82356 1.73776C12.0154 1.5438 16.2884 1.5389 21.828 1.7407C23.1421 1.79027 24.3879 2.33952 25.3109 3.27633C26.2338 4.21315 26.7645 5.46691 26.7945 6.78168C26.9218 12.14 26.9199 16.3699 26.7945 21.6646C26.7638 22.9882 26.2269 24.2497 25.2943 25.1894C24.3616 26.1291 23.1043 26.6756 21.7809 26.7164C16.4147 26.88 12.1712 26.8888 6.85001 26.7222C5.5444 26.682 4.30296 26.1468 3.37741 25.225C2.45185 24.3033 1.91148 23.0641 1.86584 21.7587C1.67972 16.368 1.68854 12.1048 1.87368 6.71017Z" stroke="#303030" stroke-width="2.62173"/>
<path d="M8.2907 8.50781L20.0987 20.3158M19.8842 8.50781L8.07617 20.3158" stroke="#303030" stroke-width="2.62173" stroke-linecap="round"/>
<path d="M34.457 5.63855H39.7263C41.9254 5.63855 43.5672 6.08916 44.6516 6.99038C45.7361 7.87593 46.2778 9.16606 46.2778 10.8617C46.2778 12.5721 45.7439 13.9004 44.6742 14.8477C43.6054 15.794 42.0479 16.2681 40.0015 16.2681H37.481V21.5824H34.457V5.63855ZM39.7488 13.633C40.8949 13.633 41.7344 13.4273 42.2693 13.0149C42.8188 12.6025 43.0941 11.9079 43.0941 10.9303C43.0941 9.98304 42.8267 9.31104 42.2918 8.9143C41.757 8.51659 40.9018 8.31871 39.7263 8.31871H37.481V13.633H39.7488ZM58.124 17.9628H51.3207L49.9914 21.5824H46.9684L53.0154 5.63855H56.5439L62.5919 21.5824H59.4533L58.124 17.9628ZM57.1855 15.3963L54.7336 8.61651L52.2601 15.3972L57.1855 15.3963ZM64.1534 13.679C64.1534 11.9843 64.4747 10.5101 65.1163 9.25814C65.7443 8.03487 66.726 7.02895 67.9336 6.37128C69.1708 5.69928 70.6294 5.36328 72.3094 5.36328C73.2714 5.36328 74.1344 5.46222 74.8975 5.66108C75.6616 5.85993 76.41 6.13422 77.1427 6.48589V9.3032H77.0507C76.5168 8.98287 75.8526 8.71545 75.0582 8.50189C74.2388 8.26711 73.39 8.15132 72.5377 8.15806C69.0709 8.15806 67.338 9.98304 67.338 13.634C67.338 15.4198 67.7494 16.7716 68.5752 17.6885C69.4001 18.6044 70.6059 19.0629 72.1948 19.0629C73.4781 19.0629 74.4322 18.7954 75.0582 18.2606V15.8557H72.0342V13.3342H78.0822V19.8632C76.8596 20.6116 75.8066 21.1308 74.921 21.4208C74.0108 21.715 73.0594 21.8621 72.1027 21.8567C70.4227 21.8567 68.9876 21.5207 67.7965 20.8477C66.6238 20.1951 65.674 19.2054 65.0703 18.0069C64.459 16.7706 64.1534 15.3277 64.1534 13.6781V13.679ZM85.6025 8.2952V12.2821H92.4734V14.7791H85.6015V18.9248H92.9778V21.5824H82.5785V5.63855H92.9788V8.2952H85.6025Z" fill="#303030"/>
</g>
</g>
</g>
<defs>
<clipPath id="clip0_63_248">
<rect width="96" height="28.41" fill="white" transform="translate(0 0.0302734)"/>
</clipPath>
<clipPath id="clip1_63_248">
<rect width="96" height="28.41" fill="white" transform="translate(0 0.0302734)"/>
</clipPath>
<clipPath id="clip2_63_248">
<rect width="96" height="28.4082" fill="white" transform="translate(0 0.03125)"/>
</clipPath>
</defs>
</svg>
