<svg width="40" height="40" viewBox="0 0 40 40" fill="none" xmlns="http://www.w3.org/2000/svg">
<path fill-rule="evenodd" clip-rule="evenodd" d="M25.0337 18.9122C25.0337 20.6937 24.326 22.4022 23.0663 23.6619C21.8066 24.9216 20.0981 25.6293 18.3166 25.6293C16.5351 25.6293 14.8266 24.9216 13.5669 23.6619C12.3072 22.4022 11.5995 20.6937 11.5995 18.9122C11.5995 17.1307 12.3072 15.4222 13.5669 14.1625C14.8266 12.9028 16.5351 12.1951 18.3166 12.1951C20.0981 12.1951 21.8066 12.9028 23.0663 14.1625C24.326 15.4222 25.0337 17.1307 25.0337 18.9122ZM23.8337 25.5971C22.1257 27.0064 19.9431 27.7087 17.7338 27.5598C15.5244 27.4108 13.4558 26.4221 11.9524 24.7963C10.449 23.1705 9.62484 21.031 9.64895 18.8167C9.67306 16.6025 10.5437 14.4814 12.0821 12.8888C13.6205 11.2961 15.7102 10.3526 17.9222 10.2518C20.1343 10.151 22.3011 10.9006 23.978 12.3468C25.6548 13.793 26.7147 15.8261 26.94 18.029C27.1654 20.2319 26.5391 22.4374 25.1898 24.1932L28.7527 27.7551C28.9358 27.9382 29.0386 28.1865 29.0386 28.4454C29.0386 28.7043 28.9358 28.9526 28.7527 29.1356C28.5696 29.3187 28.3213 29.4215 28.0625 29.4215C27.8036 29.4215 27.5553 29.3187 27.3722 29.1356L23.8337 25.5971Z" fill="white"/>
</svg>
