<svg width="39" height="40" viewBox="0 0 39 40" fill="none" xmlns="http://www.w3.org/2000/svg">
<path fill-rule="evenodd" clip-rule="evenodd" d="M9.56933 10.3673C12.1266 7.71697 15.6009 6.22656 19.2203 6.22656C22.8397 6.22656 26.314 7.71697 28.8713 10.3673C31.4306 13.0177 32.8703 16.6161 32.8703 20.3641C32.8703 24.1121 31.4306 27.7105 28.8713 30.3609C26.314 33.0112 22.8397 34.5016 19.2203 34.5016C15.6009 34.5016 12.1266 33.0112 9.56933 30.3609C7.00996 27.7105 5.57031 24.1121 5.57031 20.3641C5.57102 16.6145 7.00945 13.0187 9.56933 10.3673ZM19.7095 16.6633C18.3829 17.2352 15.7296 18.419 11.7499 20.2144C11.1035 20.4806 10.7644 20.7411 10.7346 20.9956C10.6821 21.4255 11.2019 21.595 11.9082 21.8254C12.0051 21.857 12.1055 21.8898 12.2084 21.9245C12.9058 22.1591 13.8443 22.4336 14.3305 22.4444C14.7741 22.4544 15.2668 22.2655 15.8107 21.8781C19.5304 19.2787 21.4477 17.9648 21.5693 17.9365C21.6546 17.9166 21.7719 17.8915 21.8509 17.9651C21.9319 18.0384 21.9233 18.1775 21.9148 18.2149C21.8645 18.442 19.8303 20.4007 18.7717 21.4201C18.439 21.7405 18.2026 21.9682 18.1546 22.0198C18.0475 22.1352 17.9383 22.2442 17.8334 22.349C17.1861 22.9952 16.7005 23.48 17.8603 24.2715C18.4227 24.6552 18.8716 24.9718 19.3203 25.2883C19.8023 25.6284 20.284 25.9683 20.906 26.3908C21.0659 26.4994 21.2187 26.6121 21.3674 26.722C21.9327 27.1393 22.4406 27.5142 23.0686 27.4544C23.4334 27.4198 23.8109 27.0645 24.0007 26.0051C24.4529 23.5012 25.3422 18.0763 25.547 15.8409C25.5662 15.6452 25.5427 15.3944 25.5256 15.2844C25.5064 15.1744 25.4681 15.0175 25.3316 14.9015C25.1673 14.764 24.9157 14.7351 24.8027 14.737C24.2887 14.7465 23.5016 15.0301 19.7095 16.6633Z" fill="url(#paint0_linear_63_178)"/>
<defs>
<linearGradient id="paint0_linear_63_178" x1="1370.57" y1="6.22656" x2="1370.57" y2="2833.72" gradientUnits="userSpaceOnUse">
<stop stop-color="#2AABEE"/>
<stop offset="1" stop-color="#229ED9"/>
</linearGradient>
</defs>
</svg>
