<svg width="39" height="40" viewBox="0 0 39 40" fill="none" xmlns="http://www.w3.org/2000/svg">
<path d="M23.116 7.71582H15.3052C8.17147 7.71582 6.47461 9.41267 6.47461 16.5336V24.3445C6.47461 31.4768 8.15874 33.175 15.2924 33.175H23.1032C30.2356 33.175 31.9338 31.4909 31.9338 24.3572V16.5464C31.9338 9.41267 30.2497 7.71582 23.116 7.71582ZM27.0278 25.8809H25.1705C24.4679 25.8809 24.2565 25.3119 22.9964 24.0517C21.8965 22.9913 21.4319 22.8589 21.1531 22.8589C20.7687 22.8589 20.663 22.9646 20.663 23.4954V25.1656C20.663 25.6174 20.5166 25.8822 19.3366 25.8822C18.1914 25.8053 17.0808 25.4573 16.0964 24.867C15.112 24.2768 14.2819 23.4612 13.6745 22.4872C12.2325 20.6924 11.2291 18.5858 10.7441 16.335C10.7441 16.0562 10.8498 15.8042 11.3806 15.8042H13.2366C13.714 15.8042 13.8858 16.0167 14.0729 16.5069C14.9742 19.1598 16.5119 21.4663 17.1356 21.4663C17.375 21.4663 17.4793 21.3606 17.4793 20.7636V18.0319C17.4004 16.7856 16.7385 16.6799 16.7385 16.2294C16.747 16.1105 16.8014 15.9996 16.8903 15.9202C16.9792 15.8409 17.0955 15.7992 17.2146 15.8042H20.1322C20.5306 15.8042 20.663 16.0028 20.663 16.4802V20.1666C20.663 20.565 20.8349 20.6974 20.9545 20.6974C21.1939 20.6974 21.3784 20.565 21.8163 20.1272C22.7568 18.9802 23.5253 17.7022 24.0974 16.3337C24.1559 16.1693 24.2666 16.0286 24.4125 15.933C24.5585 15.8373 24.7317 15.7921 24.9058 15.8042H26.763C27.3193 15.8042 27.4377 16.0829 27.3193 16.4802C26.644 17.993 25.8084 19.429 24.8268 20.7636C24.6269 21.0691 24.5468 21.2282 24.8268 21.5859C25.0114 21.8647 25.6619 22.4083 26.0998 22.9251C26.7362 23.5598 27.2646 24.2943 27.6643 25.0994C27.8234 25.6161 27.5573 25.8809 27.0278 25.8809Z" fill="#007DFC"/>
</svg>
