<svg width="39" height="40" viewBox="0 0 39 40" fill="none" xmlns="http://www.w3.org/2000/svg">
<path d="M18.525 7.71582C19.3241 7.72031 21.3234 7.73976 23.4484 7.82506L24.2025 7.85798C26.341 7.95824 28.4779 8.13183 29.5389 8.42663C30.953 8.82469 32.0635 9.98295 32.439 11.4525C33.0376 13.7869 33.1125 18.3391 33.1214 19.442L33.1229 19.6695V19.9299C33.1125 21.0327 33.0376 25.5865 32.439 27.9194C32.0589 29.3935 30.9471 30.5532 29.5389 30.9453C28.4779 31.2401 26.341 31.4137 24.2025 31.5139L23.4484 31.5483C21.3234 31.6322 19.3241 31.6531 18.525 31.6561L18.1733 31.6576H17.7917C16.1008 31.6471 9.02849 31.5708 6.77782 30.9453C5.36518 30.5473 4.25331 29.389 3.8777 27.9194C3.27911 25.585 3.20429 21.0327 3.19531 19.9299V19.442C3.20429 18.3391 3.27911 13.7855 3.8777 11.4525C4.2578 9.97845 5.36966 8.8187 6.77932 8.42813C9.02849 7.80111 16.1022 7.7248 17.7933 7.71582H18.525ZM15.1654 14.4498V24.925L24.1442 19.6874L15.1654 14.4498Z" fill="#E10000"/>
</svg>
